<svg width="320" height="322" viewBox="0 0 320 322" fill="none" xmlns="http://www.w3.org/2000/svg">
<path d="M310.625 202.181L248.951 211.218C258.981 212.148 269.089 212.768 279.168 213.014L296.784 212.908L291.614 241.759L280.394 304.448L277.28 321.867C150.621 308.195 23.1666 304.448 23.1666 304.448L22.8073 247.922C11.6009 243.436 4.8249 240.393 3.58522 239.829L15.8553 152.833L59.6667 146.416C25.0402 131.787 2.43006 119.714 0 118.411L21.0182 32.3303C118.045 30.816 185.163 22.0818 224.39 15.0241C264.869 7.74097 284.725 0.704365 286.648 0L286.522 0.0563492L320 85.2845C317.478 86.2776 293.967 95.2231 245.598 104.232C242.928 104.725 240.245 105.218 237.533 105.697C259.488 109.479 281.633 111.593 302.954 111.114L310.625 202.181Z" fill="#FEE0A5"/>
</svg>
