<svg width="33" height="33" viewBox="0 0 33 33" fill="none" xmlns="http://www.w3.org/2000/svg">
<path d="M10.893 26.4611V12.5415H6.26644V26.4611H10.893ZM8.58033 10.6398C10.1937 10.6398 11.1979 9.57096 11.1979 8.23524C11.1679 6.8694 10.1938 5.8302 8.61094 5.8302C7.02837 5.8302 5.99347 6.86942 5.99347 8.23524C5.99347 9.57103 6.99747 10.6398 8.55013 10.6398H8.58018H8.58033ZM13.4538 26.4611H18.0804V18.6877C18.0804 18.2716 18.1105 17.8561 18.2327 17.5587C18.5671 16.7275 19.3284 15.8666 20.6064 15.8666C22.2806 15.8666 22.9504 17.1431 22.9504 19.0143V26.461H27.5767V18.4796C27.5767 14.204 25.2942 12.2147 22.2501 12.2147C19.7543 12.2147 18.6584 13.6098 18.0496 14.56H18.0805V12.5412H13.4539C13.5146 13.8473 13.4539 26.4608 13.4539 26.4608L13.4538 26.4611Z" fill="#331B00"/>
</svg>
